<?xml version="1.0" encoding="utf-8"?>
<!-- Generator: Adobe Illustrator 16.0.3, SVG Export Plug-In . SVG Version: 6.00 Build 0)  -->
<!DOCTYPE svg PUBLIC "-//W3C//DTD SVG 1.1//EN" "http://www.w3.org/Graphics/SVG/1.1/DTD/svg11.dtd">
<svg version="1.1" id="Layer_1" xmlns="http://www.w3.org/2000/svg" xmlns:xlink="http://www.w3.org/1999/xlink" x="0px" y="0px"
	 width="142px" height="152px" viewBox="0 0 142 152" style="enable-background:new 0 0 142 152;" xml:space="preserve">
<path style="fill-rule:evenodd;clip-rule:evenodd;fill:#FDEB03;" d="M71.275,127.476c35.47,0,64.378-27.347,64.378-60.878
	c0-33.533-28.908-60.877-64.378-60.877c-35.425,0-64.333,27.345-64.333,60.877C6.942,100.129,35.851,127.476,71.275,127.476z"/>
<rect x="8.285" y="112.108" style="fill-rule:evenodd;clip-rule:evenodd;fill:#1B1918;" width="126.027" height="32.892"/>
<path style="fill-rule:evenodd;clip-rule:evenodd;fill:#FFFFFF;" d="M75.657,115.607v2.621c-2.092,0.043-5.174,0.593-5.174,3.061
	c0,1.87,2.489,3.17,5.174,3.984v3.347c-9.4-1.673-18.847-4.557-18.847-8.984c0-4.249,8.697-3.984,11.691-4.029H75.657z
	 M36.996,120.892L36.996,120.892z M36.996,120.892l-3.016,5.527c-2.444,0.77-4.976,1.738-7.574,2.994l5.593-9.026
	c1.915-3.149-1.366-3.525-4.381-3.787v-0.992h23.271v0.992c-2.487,0.198-1.123,1.87-0.483,3.104l2.531,4.623
	c-4.425-0.287-8.961-0.131-13.694,0.771L36.996,120.892z M75.657,128.62L75.657,128.62z M75.657,128.62v-3.347
	c1.872,0.572,3.853,0.881,5.086,0.99l0.088-5.195c0.021-2.928-2.026-2.84-4.932-2.84c-0.066,0-0.154,0-0.243,0v-2.621h21.907v0.992
	c-2.795,0-3.566,1.541-3.566,3.984v6.957c3.215,0.109,6.54-0.329,9.754-1.255c2.663-0.769,2.772-1.32,2.642-2.927v-2.775
	c0-2.467-0.727-3.984-3.544-3.984v-0.992h20.365v0.992c-2.796,0-3.567,1.541-3.567,3.984v2.268
	c-9.333,5.901-17.899,7.773-26.156,7.728C90.937,130.579,83.319,130.008,75.657,128.62z"/>
<path style="fill-rule:evenodd;clip-rule:evenodd;fill:#FFFFFF;" d="M76.429,130.999c-1.19,1.011-2.467,2.2-3.788,3.543
	c-2.048,2.092-5.768,6.099-0.594,6.209v0.99h-7.222H50.338h-7.772v-0.99c4.139-0.198,3.963-2.246,2.333-5.13l-3.038-5.68
	c-3.083,0.44-6.032,1.012-8.719,2.158c-1.52,0.638-3.082,1.1-4.535,3.698c-1.365,2.488-2.334,4.668,1.74,4.954v0.99H16.146v-0.99
	c3.104-0.441,4.469-2.18,6.055-4.514l2.202-3.588c10.832-5.702,20.563-6.759,29.81-5.99l3.81,6.958
	c1.651-2.003,3.5-3.677,5.482-5.327c2.048,0.438,4.161,0.902,6.319,1.364C71.936,130.16,74.183,130.625,76.429,130.999z
	 M93.998,136.788L93.998,136.788z M93.998,136.788c0,2.444,0.771,3.963,3.566,3.963v0.99h-20.32v-0.99
	c2.838,0,3.588-1.496,3.588-3.963v-5.086c5.681,0.792,10.677,1.123,12.659,1.123c0.176,0,0.353,0,0.507,0V136.788z M119.647,125.119
	L119.647,125.119z M119.647,125.119v11.669c0,2.444,0.771,3.963,3.567,3.963v0.99h-20.365v-0.99c2.818,0,3.544-1.496,3.544-3.963
	v-5.68C110.664,129.92,115.067,128.003,119.647,125.119z"/>
<path style="fill-rule:evenodd;clip-rule:evenodd;fill:#1B1918;" d="M96.462,14.726c-0.857-0.749-2.398,1.432-3.346,1.41
	c-1.562,0-2.069-2.29-4.777-1.939c-2.444,0.332-4.206,3.371-6.363,4.647c-0.946,0.549-2.599,0.198-1.584-0.969l1.76-2.07
	c0.838-1.012,0.221-2.047-1.167-1.321c-1.255,0.683-2.047,2.995-3.325,4.074c-0.991,0.749-2.334,0.131-1.696-0.793l2.115-2.421
	c0.77-0.859-0.176-1.74-1.276-0.903c-2.532,1.871-4.404,5.239-7.266,7.354c-1.388,1.013-3.017,1.718-5.064,1.827
	c-3.434,0.155-8.675-4.865-9.842-9.07c-0.309-1.057-1.255-0.815-1.343,0.11c-0.198,2.554,2.157,6.274,4.711,8.103
	c0.639,0.417,0.331,1.101-0.461,0.881c-3.325-0.837-7.508-5.02-10.744-9.447c-0.397-0.527-1.014-0.396-1.057,0.111v0.176
	c0,0.11,0.043,0.221,0.088,0.33c3.81,8.961,14.312,14.201,23.713,12.969c1.1-0.133,2.157-0.353,3.213-0.661l-0.132,2.224
	c-1.232-0.287-2.201-0.22-3.081,0.021c-1.96,0.55-3.325,1.96-5.086,2.158l-5.747,0.639c-1.937,0.199-2.95,0.683-3.897,3.545
	c-0.397,1.21-3.149,2.268-2.444,5.857c1.387,0.903,2.378,0.396,2.906-1.674c0.287-1.144,1.454-0.727,1.058,0.176
	c-0.22,0.507-0.529,0.792-0.661,1.079c-0.44,0.946,0.308,1.41,1.277,0.638c0.528-0.439,0.616-1.21,0.969-1.826
	c3.501,0.593,7.134,0.549,10.744-0.221c0.396,0.528,0.705,1.079,0.881,1.696c0.11,0.417,0.197,0.814,0.263,1.277l-0.263,0.087
	l-2.532,1.057c-1.387-0.55-2.841-1.167-4.449-1.1c-11.119,0.55-10.436,14.575-9.753,21.709c-0.396,6.451-1.409,12.616-3.832,18.12
	l2.752,18.89c0.287,1.938-0.396,4.227,0.661,4.646l0.661,3.896h6.121l-1.827-1.937c-0.925-0.969-1.63-2.269-1.806-3.61l-1.144-8.366
	c-0.573-4.096,0.285-8.368,1.563-12.375l4.689-14.685c0.506,0.461,1.056,0.814,1.608,1.123c0.307,4.667-2.246,8.059-3.92,11.669
	c3.126,7.243,5.747,14.268,6.848,20.696c1.276,1.695,2.466,3.455,3.258,5.57h1.102h2.949l-0.55,1.915h4.668
	c1.232-7.111-0.594-5.659-0.528-7.662l0.264-8.102c0.727-3.038,0.593-5.835-0.066-7.949c0.088-4.182,0-8.167-0.264-11.712
	l1.959-2.267c1.188,0.33,2.443,0.241,3.808-0.176l1.036,1.32c0.131,3.898,0.88,7.508,1.893,11.009l0.11,4.887
	c2.334,5.219,3.061,10.635,2.112,16.206c0.903,1.541,1.146,3.06,0.927,4.446l4.778,0.023l-1.63-4.118
	c-0.088-2.619-1.167-4.05-1.387-6.144l-0.794-7.264c-0.174-1.564,0.75-4.339-0.064-7.509c0.131-5.151,1.937-11.14,0.924-15.588
	c0.86-1.981,1.233-4.292,1.255-6.957c0.11-15.587-8.938-34.655-13.277-33.532l0.067-1.52c6.956-0.594,12.967-3.214,17.394-8.894
	c0.681-0.904,1.496-2.269,1.542-3.126v-0.198C96.639,15.012,96.596,14.836,96.462,14.726z M69.537,31.481
	c-0.331,0-0.683-0.022-0.969,0.066c-0.528-0.353-0.616-0.705-0.066-0.86c0.396-0.109,0.726-0.109,1.035-0.086
	c0.66,0.043,1.1,0.374,1.541,0.639C70.681,31.591,70.131,31.547,69.537,31.481z M72.927,106.405c-0.33-0.11-0.683-0.243-1.035-0.331
	c-0.88-0.594-1.65-1.605-2.355-2.927c-2.181-4.117-3.589-11.25-4.492-18.759c0.462-1.827,2.73-4.843,4.05-8.035
	c-0.263-0.97-0.66-1.917-0.792-2.886c-0.088-1.144,0.309-2.245,0.287-3.39c-0.111-1.475-1.079-3.325-0.947-4.953l0.352-0.044
	c0,1.717,1.1,3.258,1.232,4.975c0.021,1.123-0.33,2.246-0.22,3.369c0.176,0.991,0.044,0.858,0.529,1.739v0.023
	c1.343,3.83,2.465,7.793,3.06,11.867c0.33,2.201,0.44,4.513,1.298,5.944C74.226,97.333,73.896,101.825,72.927,106.405z"/>
</svg>
